<svg width="160" height="161" viewBox="0 0 160 161" fill="none" xmlns="http://www.w3.org/2000/svg">
<g id="twemoji:brain">
<path id="Vector" d="M132.871 119.02C132.884 120.278 132.56 121.922 132.222 123.278C129.862 132.811 119.382 143.509 104.631 142.536C91.2622 141.656 80.3733 135.238 80.3733 126.238C80.3733 117.238 91.2355 109.94 104.631 109.94C118.027 109.94 132.787 110.02 132.871 119.02Z" fill="#0066FF"/>
<path id="Vector_2" d="M104.631 111.451C97.4356 111.451 81.0133 113.442 77.2445 113.442C70.5867 113.442 65.1867 117.62 65.1867 122.776C65.1867 125.256 66.4578 127.496 68.4933 129.167C68.4933 129.167 72.9645 133.651 81.0178 131.5C84.5422 130.558 90.2756 123.562 100.369 122.451C105.396 121.896 114.813 125.784 131.364 125.878C132.076 124.349 132.222 123.287 132.222 123.287C132.222 114.278 118.027 111.451 104.631 111.451Z" fill="#003E9A"/>
<path id="Vector_3" d="M132.222 123.278C132.222 123.278 141.929 121.309 147.964 113.371C155 104.113 154.076 94.2067 154.076 94.2067C161.204 80.8733 151.853 68.3711 151.853 68.3711C150.924 54.2956 142.222 48.4645 142.222 48.4645C136.573 35.0378 124.076 31.4289 124.076 31.4289C114.262 19.9489 96.8533 20.3178 96.8533 20.3178C96.8533 20.3178 80.5422 14.34 58.1511 21.06C54.4489 22.1711 42.04 24.7622 32.9644 30.3178C4.36 47.8289 2.19555 75.1356 2.59555 79.5756C4.81333 104.389 22.2222 108.833 33.3333 111.424C35.9244 118.46 45.4622 131.424 62.5911 126.611C83.7022 122.909 92.5911 116.611 97.7778 116.611C102.964 116.611 117.409 122.167 132.222 123.278Z" fill="#DEEBFF"/>
<g id="Group">
<path id="Vector_4" d="M78.8311 83.38C89.1778 77.8022 94.7867 78.3222 99.7378 78.7711C101.311 78.9133 102.8 79.0244 104.307 79.0155C113.124 78.8155 120.267 75.1 123.427 71.5044C123.789 71.0576 123.964 70.4879 123.916 69.9147C123.868 69.3415 123.599 68.8092 123.167 68.4294C122.735 68.0496 122.173 67.8518 121.598 67.8774C121.024 67.903 120.481 68.15 120.084 68.5666C117.649 71.34 111.644 74.4022 104.204 74.5711C102.871 74.6111 101.533 74.4777 100.147 74.3489C94.8355 73.8555 88.24 73.2511 76.72 79.4689C73.7644 81.0644 69.7111 81.6555 65.32 82.1C55.5555 68.0066 61.4311 55.7311 63.1111 52.8066C63.2755 52.8155 63.4355 52.8689 63.6044 52.8689C65.3822 52.8689 67.1689 52.4333 68.7867 51.5177C69.2795 51.2177 69.6363 50.7377 69.7816 50.1794C69.927 49.621 69.8494 49.028 69.5654 48.5257C69.2814 48.0235 68.8131 47.6514 68.2597 47.4882C67.7063 47.325 67.1111 47.3834 66.6 47.6511C65.2018 48.4208 63.5647 48.6346 62.0157 48.2498C60.4667 47.8651 59.1199 46.91 58.2444 45.5755C57.9139 45.1095 57.4166 44.7886 56.8558 44.6796C56.295 44.5706 55.7137 44.6818 55.2327 44.9901C54.7516 45.2984 54.4078 45.7801 54.2726 46.3352C54.1375 46.8903 54.2213 47.4761 54.5067 47.9711C55.56 49.62 57.0444 50.86 58.72 51.6911C56.4044 56.3933 52.0089 68.7577 60.3733 82.5844C54.4889 83.1622 48.5955 83.9933 43.9822 86.9666C40.7408 89.0925 37.9127 91.7897 35.6355 94.9266C32.84 94.4466 22.6044 91.9266 20.8178 80.5666C21.9289 79.7044 22.8267 78.5666 23.3822 77.1622C23.4896 76.8908 23.5425 76.6009 23.5378 76.3091C23.5332 76.0172 23.4711 75.7292 23.3552 75.4613C23.2392 75.1935 23.0716 74.9511 22.8619 74.748C22.6523 74.5449 22.4047 74.3851 22.1333 74.2777C21.8619 74.1704 21.572 74.1175 21.2802 74.1221C20.9884 74.1268 20.7003 74.1888 20.4324 74.3048C20.1646 74.4208 19.9222 74.5884 19.7191 74.798C19.5161 75.0076 19.3563 75.2552 19.2489 75.5266C19.0813 75.9941 18.8141 76.4195 18.4656 76.7733C18.1172 77.1271 17.6959 77.4008 17.2311 77.5755C16.7602 77.7311 16.2614 77.7838 15.7684 77.7301C15.2754 77.6765 14.7997 77.5177 14.3733 77.2644C14.1183 77.1226 13.8378 77.0324 13.5479 76.999C13.2579 76.9655 12.9643 76.9895 12.6836 77.0696C12.1169 77.2313 11.6375 77.6115 11.3511 78.1266C11.0647 78.6417 10.9946 79.2495 11.1563 79.8163C11.318 80.3831 11.6982 80.8624 12.2133 81.1489C13.4755 81.8511 14.8267 82.2066 16.1689 82.2066C16.3333 82.2066 16.4889 82.1311 16.6533 82.1222C18.7689 92.8466 27.2444 97.5577 33.24 98.9844C32.4558 100.655 31.9585 102.446 31.7689 104.282C31.7171 104.869 31.9006 105.453 32.279 105.904C32.6573 106.356 33.1997 106.639 33.7867 106.691L33.9867 106.7C34.5421 106.7 35.0774 106.492 35.4871 106.117C35.8968 105.742 36.1511 105.227 36.2 104.673C36.68 99.2822 41.8222 93.6511 46.3911 90.6955C50.6755 87.9355 56.9467 87.3533 63.0178 86.7889C68.9067 86.2511 74.4711 85.7355 78.8311 83.38ZM136.013 76.6955C135.73 77.213 135.665 77.8216 135.831 78.3876C135.996 78.9535 136.38 79.4304 136.898 79.7133C137.415 79.9962 138.024 80.062 138.59 79.8961C139.156 79.7302 139.633 79.3463 139.916 78.8289C140 78.6777 148.102 63.5 132.933 53.3C132.444 52.9711 131.844 52.85 131.266 52.9634C130.687 53.0767 130.178 53.4152 129.849 53.9044C129.52 54.3936 129.399 54.9934 129.512 55.5718C129.626 56.1503 129.964 56.66 130.453 56.9889C142.204 64.8911 136.271 76.2155 136.013 76.6955ZM43.8933 40.8111C44.2459 40.8112 44.5934 40.7274 44.9071 40.5666C45.2209 40.4059 45.4919 40.1728 45.6978 39.8866C52.1422 30.9222 61.0667 33.9889 61.4444 34.1311C61.9918 34.3118 62.588 34.2727 63.1071 34.0221C63.6262 33.7714 64.0276 33.3289 64.2266 32.7879C64.4256 32.2469 64.4065 31.6498 64.1735 31.1226C63.9405 30.5953 63.5118 30.1793 62.9778 29.9622C58.7111 28.38 48.8578 27.8822 42.0889 37.2955C41.8513 37.6275 41.7097 38.0185 41.6797 38.4257C41.6498 38.8329 41.7325 39.2404 41.919 39.6036C42.1054 39.9668 42.3883 40.2716 42.7365 40.4847C43.0848 40.6977 43.4851 40.8106 43.8933 40.8111ZM101.991 32.42C111.88 31.6155 116.378 38.7844 116.582 39.1222C116.881 39.6308 117.37 39.9999 117.941 40.1483C118.223 40.2217 118.518 40.2388 118.807 40.1985C119.096 40.1582 119.375 40.0613 119.627 39.9133C119.879 39.7653 120.099 39.5692 120.275 39.3362C120.451 39.1031 120.579 38.8376 120.653 38.5549C120.726 38.2722 120.743 37.9778 120.703 37.6885C120.663 37.3992 120.566 37.1207 120.418 36.8689C120.178 36.4644 114.462 27.0111 101.644 27.9889C101.353 28.0116 101.07 28.0915 100.81 28.2238C100.55 28.3562 100.318 28.5385 100.129 28.7603C99.7456 29.2083 99.5562 29.7901 99.6022 30.3777C99.6482 30.9653 99.9257 31.5106 100.374 31.8936C100.822 32.2766 101.403 32.4659 101.991 32.42ZM142.658 97.3577C141.564 97.2955 140.36 98.1622 140.262 99.3889C140.253 99.4688 139.547 107.029 131.773 109.584C131.265 109.744 130.831 110.081 130.551 110.535C130.271 110.988 130.164 111.527 130.249 112.053C130.333 112.579 130.604 113.057 131.013 113.399C131.421 113.742 131.938 113.926 132.471 113.918C132.707 113.918 132.941 113.88 133.164 113.807C143.707 110.349 144.658 100.189 144.693 99.7577C144.718 99.4664 144.684 99.1732 144.595 98.8948C144.506 98.6164 144.363 98.3583 144.174 98.1354C143.984 97.9124 143.753 97.729 143.493 97.5955C143.233 97.4621 142.949 97.3813 142.658 97.3577Z" fill="#0066FF"/>
<path id="Vector_5" d="M32.6533 75.7622C32.5659 76.0473 32.5368 76.3471 32.5677 76.6438C32.5986 76.9404 32.6889 77.2278 32.8332 77.4888C32.9775 77.7498 33.1729 77.9791 33.4077 78.163C33.6425 78.3469 33.9119 78.4816 34.1998 78.5592C34.4878 78.6368 34.7885 78.6556 35.0839 78.6146C35.3793 78.5735 35.6634 78.4734 35.9193 78.3203C36.1752 78.1671 36.3976 77.964 36.5734 77.723C36.7491 77.4821 36.8746 77.2082 36.9422 76.9177C37.3701 75.3778 38.3652 74.057 39.7273 73.2209C41.0895 72.3849 42.7176 72.0955 44.2844 72.4111C44.5701 72.4709 44.8648 72.4739 45.1517 72.4198C45.4385 72.3657 45.7119 72.2557 45.9562 72.096C46.2005 71.9363 46.411 71.73 46.5756 71.4889C46.7402 71.2479 46.8557 70.9768 46.9156 70.6911C46.9754 70.4054 46.9783 70.1107 46.9243 69.8238C46.8702 69.537 46.7602 69.2636 46.6005 69.0193C46.4408 68.775 46.2345 68.5645 45.9934 68.3999C45.7524 68.2353 45.4813 68.1198 45.1956 68.06C43.3461 67.6839 41.4293 67.816 39.6489 68.4422C34.4667 59.58 35.4756 50.8422 35.4889 50.7488C35.5672 50.1648 35.4103 49.5735 35.0528 49.1051C34.6952 48.6367 34.1663 48.3295 33.5822 48.2511C33.0001 48.1762 32.4119 48.3332 31.9446 48.6883C31.4773 49.0434 31.1683 49.568 31.0844 50.1488C31.0267 50.58 29.84 60.4422 35.8089 70.6555C34.2899 72.0205 33.1946 73.793 32.6533 75.7622ZM82.3378 64.7844C83.2255 63.9781 84.385 63.537 85.5842 63.5493C86.7833 63.5617 87.9336 64.0266 88.8044 64.8511C89.2276 65.2612 89.7964 65.4865 90.3857 65.4774C90.975 65.4682 91.5365 65.2253 91.9467 64.8022C92.3574 64.3796 92.5835 63.8111 92.5752 63.2219C92.5668 62.6326 92.3248 62.0708 91.9022 61.66C90.8987 60.7044 89.6857 59.9967 88.36 59.5933C89.6756 55.0777 89.1556 53.0733 87.9333 49.3177C87.6916 48.5829 87.459 47.845 87.2356 47.1044L87.1022 46.66C85.4844 41.2911 84.4133 37.7488 87.4889 32.7488C87.7977 32.2467 87.8944 31.6424 87.7577 31.069C87.621 30.4955 87.2621 29.9999 86.76 29.6911C86.2579 29.3822 85.6536 29.2855 85.0801 29.4222C84.5067 29.5589 84.0111 29.9178 83.7022 30.42C79.5778 37.1222 81.0933 42.14 82.8489 47.9488L82.9822 48.3933C83.243 49.2525 83.4844 50.0185 83.7067 50.6911C84.8044 54.0733 85.1378 55.2066 83.7956 59.2955C82.1152 59.5957 80.5569 60.3733 79.3067 61.5355C78.8912 61.9411 78.651 62.4933 78.6375 63.0737C78.6239 63.6542 78.8381 64.2169 79.2342 64.6415C79.6303 65.0661 80.1769 65.3187 80.7569 65.3454C81.3369 65.3721 81.9043 65.1708 82.3378 64.7844ZM110.627 51.5177C111.946 51.5217 113.251 51.2317 114.444 50.6688C114.978 50.4178 115.39 49.9651 115.589 49.4104C115.789 48.8557 115.76 48.2444 115.509 47.7111C115.258 47.1777 114.805 46.7659 114.25 46.5663C113.696 46.3666 113.084 46.3955 112.551 46.6466C111.459 47.1479 110.217 47.2171 109.076 46.8403C107.935 46.4635 106.979 45.6686 106.4 44.6155C106.268 44.3485 106.083 44.1107 105.858 43.9164C105.632 43.7221 105.369 43.5752 105.086 43.4843C104.802 43.3935 104.503 43.3607 104.206 43.3878C103.909 43.4148 103.621 43.5013 103.359 43.642C103.096 43.7826 102.864 43.9747 102.678 44.2067C102.491 44.4387 102.352 44.7059 102.271 44.9924C102.189 45.2789 102.166 45.5789 102.203 45.8745C102.24 46.1702 102.335 46.4554 102.484 46.7133C103.284 48.2066 104.476 49.3844 105.862 50.2022C103.476 56.0022 104.831 62.1622 105.938 65.4288C106.022 65.7155 106.164 65.9822 106.354 66.2128C106.544 66.4435 106.779 66.6334 107.044 66.7713C107.309 66.9092 107.6 66.9921 107.898 67.0152C108.196 67.0383 108.495 67.001 108.778 66.9055C109.062 66.8101 109.323 66.6585 109.546 66.4599C109.769 66.2612 109.95 66.0195 110.078 65.7493C110.206 65.4791 110.278 65.1858 110.29 64.8872C110.301 64.5885 110.253 64.2905 110.147 64.0111C109.4 61.7977 107.951 56.2066 110.138 51.4511C110.307 51.46 110.462 51.5177 110.627 51.5177ZM131.947 93.4244C131.93 93.1325 131.855 92.847 131.727 92.5842C131.599 92.3214 131.42 92.0867 131.2 91.8936C130.981 91.7006 130.725 91.553 130.448 91.4595C130.171 91.366 129.878 91.3284 129.587 91.3488C128.521 91.4225 127.451 91.2849 126.439 90.944C125.427 90.603 124.492 90.0655 123.687 89.3622C122.883 88.6589 122.226 87.8038 121.754 86.8458C121.281 85.8878 121.002 84.846 120.933 83.78C120.882 83.196 120.607 82.6546 120.165 82.2692C119.724 81.8839 119.15 81.6846 118.564 81.7133C118.273 81.733 117.989 81.81 117.727 81.9398C117.466 82.0695 117.232 82.2495 117.04 82.4695C116.848 82.6895 116.702 82.9452 116.609 83.2219C116.515 83.4986 116.478 83.7909 116.498 84.0822C116.68 86.7044 117.68 89.0688 119.2 90.9933C115.627 95.1977 110.947 96.3933 108.338 96.7C106.031 96.9755 104.013 96.74 101.68 96.4644C99.5422 96.2199 97.1244 95.9399 94.1333 96.0288L94.1111 96.0333C94.0222 94.7622 93.72 92.9088 92.7556 91.3666C92.424 90.9099 91.9314 90.5962 91.3773 90.4888C90.8233 90.3814 90.2491 90.4884 89.7709 90.7882C89.2928 91.088 88.9463 91.5581 88.8015 92.1036C88.6568 92.6491 88.7245 93.2292 88.9911 93.7266C89.5867 94.6822 89.6978 96.2066 89.6978 96.9488C87.4578 97.7533 85.52 98.9355 83.7689 100.078C80.64 102.113 78.1733 103.722 74.4622 102.887C71.1022 102.118 67.7378 101.962 64.8844 102.362C64.44 101.247 63.7378 99.9133 62.6533 98.8866C62.2249 98.4817 61.6531 98.2636 61.0638 98.2803C60.4745 98.297 59.916 98.547 59.5111 98.9755C59.1062 99.404 58.8881 99.9757 58.9048 100.565C58.9214 101.154 59.1715 101.713 59.6 102.118C59.9822 102.478 60.2844 103.002 60.5289 103.527C55.6267 105.544 53.1689 108.918 53.0533 109.082C52.8176 109.414 52.6777 109.804 52.649 110.21C52.6204 110.617 52.704 111.023 52.8908 111.384C53.0776 111.746 53.3604 112.049 53.7081 112.261C54.0559 112.473 54.4551 112.585 54.8622 112.584C55.2136 112.586 55.5604 112.504 55.874 112.346C56.1877 112.188 56.4594 111.957 56.6667 111.673C56.6889 111.638 59.1289 108.371 63.9422 107.051C66.4311 106.367 70 106.424 73.48 107.216C74.4533 107.438 75.3556 107.513 76.2311 107.527C76.6444 108.496 76.8044 109.647 76.8267 110.073C76.8585 110.64 77.1059 111.173 77.5183 111.563C77.9307 111.953 78.4768 112.171 79.0444 112.171L79.1644 112.167C79.7509 112.136 80.3012 111.874 80.6951 111.438C81.089 111.003 81.2945 110.429 81.2667 109.842C81.1934 108.807 80.9995 107.784 80.6889 106.793C82.7378 106.051 84.52 104.891 86.1955 103.802C88.7378 102.144 91.1422 100.576 94.2844 100.473C96.9156 100.38 99.0844 100.633 101.178 100.878C103.284 101.122 105.356 101.282 107.64 101.149C108.044 102.273 108.013 103.776 107.951 104.278C107.913 104.591 107.942 104.908 108.036 105.209C108.13 105.51 108.286 105.788 108.495 106.024C108.703 106.26 108.96 106.45 109.247 106.58C109.534 106.71 109.845 106.778 110.16 106.78C110.699 106.779 111.219 106.583 111.624 106.227C112.028 105.871 112.29 105.381 112.36 104.847C112.521 103.389 112.433 101.914 112.098 100.487C116.153 99.4107 119.786 97.1313 122.52 93.9488C124.723 95.3117 127.295 95.9534 129.88 95.7844C130.467 95.7445 131.013 95.4737 131.401 95.0313C131.788 94.589 131.984 94.0112 131.947 93.4244Z" fill="#0066FF"/>
</g>
</g>
</svg>
