<svg width="23" height="23" viewBox="0 0 23 23" fill="none" xmlns="http://www.w3.org/2000/svg">
<g id="Facebook - Original" clip-path="url(#clip0_392_10233)">
<path id="Vector" d="M22.5255 11.293C22.5255 5.34312 17.7022 0.519775 11.7523 0.519775C5.80235 0.519775 0.979004 5.34312 0.979004 11.293C0.979004 16.6702 4.91861 21.1272 10.0689 21.9354V14.4072H7.33354V11.293H10.0689V8.91955C10.0689 6.2195 11.6774 4.72808 14.1382 4.72808C15.3165 4.72808 16.5497 4.93849 16.5497 4.93849V7.58972H15.1913C13.853 7.58972 13.4356 8.42023 13.4356 9.27304V11.293H16.4235L15.9458 14.4072H13.4356V21.9354C18.5859 21.1272 22.5255 16.6702 22.5255 11.293Z" fill="#1877F2"/>
<path id="Vector_2" d="M15.9458 14.4071L16.4234 11.293H13.4355V9.27299C13.4355 8.42102 13.853 7.58967 15.1912 7.58967H16.5497V4.93844C16.5497 4.93844 15.3169 4.72803 14.1381 4.72803C11.6773 4.72803 10.0689 6.21945 10.0689 8.9195V11.293H7.3335V14.4071H10.0689V21.9354C11.1843 22.1099 12.3201 22.1099 13.4355 21.9354V14.4071H15.9458Z" fill="white"/>
</g>
<defs>
<clipPath id="clip0_392_10233">
<rect width="21.5465" height="21.5465" fill="white" transform="translate(0.979004 0.519775)"/>
</clipPath>
</defs>
</svg>
