<svg width="23" height="23" viewBox="0 0 23 23" fill="none" xmlns="http://www.w3.org/2000/svg">
<g id="Instagram - Original" clip-path="url(#clip0_392_10235)">
<path id="Vector" d="M11.2476 2.4598C14.1261 2.4598 14.467 2.47243 15.599 2.52293C16.6511 2.56922 17.2192 2.74597 17.598 2.89326C18.0987 3.08684 18.4607 3.32251 18.8352 3.69704C19.2139 4.07579 19.4454 4.4335 19.639 4.93429C19.7863 5.31303 19.963 5.88536 20.0093 6.93323C20.0598 8.06947 20.0724 8.41034 20.0724 11.2846C20.0724 14.1631 20.0598 14.504 20.0093 15.636C19.963 16.6881 19.7863 17.2562 19.639 17.6349C19.4454 18.1357 19.2097 18.4976 18.8352 18.8722C18.4564 19.2509 18.0987 19.4824 17.598 19.676C17.2192 19.8233 16.6469 20 15.599 20.0463C14.4628 20.0968 14.1219 20.1094 11.2476 20.1094C8.36914 20.1094 8.02827 20.0968 6.89624 20.0463C5.84416 20 5.27604 19.8233 4.89729 19.676C4.3965 19.4824 4.03459 19.2467 3.66005 18.8722C3.2813 18.4934 3.04985 18.1357 2.85626 17.6349C2.70897 17.2562 2.53223 16.6839 2.48593 15.636C2.43543 14.4998 2.42281 14.1589 2.42281 11.2846C2.42281 8.40614 2.43543 8.06526 2.48593 6.93323C2.53223 5.88115 2.70897 5.31303 2.85626 4.93429C3.04985 4.4335 3.28551 4.07158 3.66005 3.69704C4.0388 3.3183 4.3965 3.08684 4.89729 2.89326C5.27604 2.74597 5.84837 2.56922 6.89624 2.52293C8.02827 2.47243 8.36914 2.4598 11.2476 2.4598ZM11.2476 0.519775C8.32285 0.519775 7.95673 0.5324 6.80786 0.5829C5.6632 0.6334 4.87625 0.818565 4.19451 1.08369C3.4833 1.36144 2.88151 1.72756 2.28394 2.32935C1.68215 2.92692 1.31603 3.52871 1.03828 4.23571C0.773155 4.92166 0.587989 5.7044 0.53749 6.84906C0.48699 8.00214 0.474365 8.36826 0.474365 11.293C0.474365 14.2178 0.48699 14.5839 0.53749 15.7328C0.587989 16.8775 0.773155 17.6644 1.03828 18.3461C1.31603 19.0574 1.68215 19.6591 2.28394 20.2567C2.88151 20.8543 3.4833 21.2246 4.1903 21.4982C4.87625 21.7633 5.65899 21.9485 6.80365 21.999C7.95252 22.0495 8.31864 22.0621 11.2434 22.0621C14.1682 22.0621 14.5343 22.0495 15.6832 21.999C16.8278 21.9485 17.6148 21.7633 18.2965 21.4982C19.0035 21.2246 19.6053 20.8543 20.2029 20.2567C20.8005 19.6591 21.1708 19.0574 21.4443 18.3504C21.7095 17.6644 21.8946 16.8817 21.9451 15.737C21.9956 14.5881 22.0083 14.222 22.0083 11.2972C22.0083 8.37247 21.9956 8.00635 21.9451 6.85748C21.8946 5.71282 21.7095 4.92587 21.4443 4.24412C21.1792 3.52871 20.8131 2.92692 20.2113 2.32935C19.6137 1.73177 19.0119 1.36144 18.3049 1.0879C17.619 0.822773 16.8362 0.637608 15.6916 0.587108C14.5385 0.5324 14.1724 0.519775 11.2476 0.519775Z" fill="url(#paint0_linear_392_10235)"/>
<path id="Vector_2" d="M11.2475 5.75916C8.19231 5.75916 5.71362 8.23785 5.71362 11.2931C5.71362 14.3483 8.19231 16.827 11.2475 16.827C14.3028 16.827 16.7815 14.3483 16.7815 11.2931C16.7815 8.23785 14.3028 5.75916 11.2475 5.75916ZM11.2475 14.8828C9.26543 14.8828 7.65786 13.2752 7.65786 11.2931C7.65786 9.31096 9.26543 7.70339 11.2475 7.70339C13.2297 7.70339 14.8372 9.31096 14.8372 11.2931C14.8372 13.2752 13.2297 14.8828 11.2475 14.8828Z" fill="url(#paint1_linear_392_10235)"/>
<path id="Vector_3" d="M18.2924 5.54024C18.2924 6.25565 17.7116 6.83219 17.0004 6.83219C16.285 6.83219 15.7085 6.25145 15.7085 5.54024C15.7085 4.82483 16.2892 4.24829 17.0004 4.24829C17.7116 4.24829 18.2924 4.82904 18.2924 5.54024Z" fill="url(#paint2_linear_392_10235)"/>
</g>
<defs>
<linearGradient id="paint0_linear_392_10235" x1="11.2413" y1="0.519775" x2="11.2413" y2="22.0621" gradientUnits="userSpaceOnUse">
<stop stop-color="#BD1CF5"/>
<stop offset="0.405" stop-color="#F51C50"/>
<stop offset="0.505" stop-color="#F6274B"/>
<stop offset="0.675" stop-color="#F74040"/>
<stop offset="0.985" stop-color="#FFD600"/>
</linearGradient>
<linearGradient id="paint1_linear_392_10235" x1="11.2475" y1="5.75916" x2="11.2475" y2="16.827" gradientUnits="userSpaceOnUse">
<stop stop-color="#BD1CF5"/>
<stop offset="0.405" stop-color="#F51C50"/>
<stop offset="0.505" stop-color="#F6274B"/>
<stop offset="0.675" stop-color="#F74040"/>
<stop offset="0.985" stop-color="#FFD600"/>
</linearGradient>
<linearGradient id="paint2_linear_392_10235" x1="17.0004" y1="4.24829" x2="17.0004" y2="6.83219" gradientUnits="userSpaceOnUse">
<stop stop-color="#BD1CF5"/>
<stop offset="0.405" stop-color="#F51C50"/>
<stop offset="0.505" stop-color="#F6274B"/>
<stop offset="0.675" stop-color="#F74040"/>
<stop offset="0.985" stop-color="#FFD600"/>
</linearGradient>
<clipPath id="clip0_392_10235">
<rect width="21.5465" height="21.5465" fill="white" transform="translate(0.474365 0.519775)"/>
</clipPath>
</defs>
</svg>
