<svg width="24" height="25" viewBox="0 0 24 25" fill="none" xmlns="http://www.w3.org/2000/svg">
<g id="Send_fill">
<path id="Subtract" fill-rule="evenodd" clip-rule="evenodd" d="M0.298712 7.46241C0.367719 7.19546 0.577639 6.9879 0.845356 6.92191C7.5341 5.27326 14.4552 4.77874 21.3104 5.45964C21.5505 5.48349 21.7645 5.62142 21.8854 5.83025C22.0063 6.03909 22.0193 6.29334 21.9204 6.51343C19.0964 12.7966 15.2205 18.5516 10.4596 23.5302C10.269 23.7295 9.98449 23.8081 9.71864 23.735C9.4528 23.6619 9.2485 23.4488 9.18664 23.1801L7.15526 14.3563L0.514945 8.20012C0.312743 8.01266 0.229706 7.72937 0.298712 7.46241ZM8.68954 14.3347L10.332 21.4692C14.3025 17.1147 17.5989 12.1895 20.1109 6.85736C14.2358 6.37974 8.32292 6.785 2.56912 8.05907L7.93806 13.0365L13.9497 9.55693C14.3082 9.34943 14.7671 9.47183 14.9746 9.83033C15.1821 10.1888 15.0597 10.6476 14.7012 10.8551L8.68954 14.3347Z" fill="#0066FF"/>
</g>
</svg>
