<svg width="22" height="23" viewBox="0 0 22 23" fill="none" xmlns="http://www.w3.org/2000/svg">
<g id="Twitter - Original" clip-path="url(#clip0_392_10234)">
<path id="Vector" d="M7.00251 20.0468C15.1333 20.0468 19.5805 13.3105 19.5805 7.46885C19.5805 7.27752 19.5805 7.08705 19.5676 6.89744C20.4327 6.27165 21.1796 5.49681 21.7731 4.6092C20.9663 4.96688 20.1104 5.20133 19.234 5.30472C20.1569 4.75231 20.8476 3.88336 21.1775 2.85962C20.3098 3.37459 19.3604 3.73749 18.3704 3.93264C17.7039 3.22392 16.8224 2.75462 15.8623 2.59737C14.9022 2.44012 13.9171 2.60368 13.0593 3.06275C12.2015 3.52181 11.5189 4.25079 11.1172 5.13686C10.7155 6.02294 10.617 7.01672 10.8369 7.96442C9.07939 7.87626 7.36003 7.41951 5.79046 6.6238C4.22088 5.8281 2.83617 4.71124 1.7262 3.34571C1.1609 4.31889 0.987758 5.47094 1.24203 6.5673C1.4963 7.66365 2.15887 8.62187 3.09483 9.24687C2.3913 9.22626 1.70308 9.03647 1.08842 8.69356V8.74958C1.0887 9.77021 1.44201 10.7593 2.08842 11.5492C2.73484 12.339 3.63456 12.8809 4.63498 13.083C3.98417 13.2605 3.30132 13.2865 2.63891 13.1589C2.92151 14.0372 3.47149 14.8052 4.21198 15.3556C4.95248 15.9061 5.84646 16.2114 6.76895 16.2288C5.85239 16.9492 4.80279 17.4819 3.68018 17.7963C2.55757 18.1107 1.38398 18.2007 0.226562 18.0611C2.24819 19.3584 4.60044 20.0466 7.00251 20.0434" fill="#1DA1F2"/>
</g>
<defs>
<clipPath id="clip0_392_10234">
<rect width="21.5465" height="21.5465" fill="white" transform="translate(0.226562 0.519775)"/>
</clipPath>
</defs>
</svg>
