<svg width="65" height="61" viewBox="0 0 65 61" fill="none" xmlns="http://www.w3.org/2000/svg">
<path d="M18.1263 31.3397H12.0422C11.5013 31.3397 11.0066 31.0411 10.7589 30.5661C10.5111 30.091 10.5523 29.5188 10.865 29.083L16.4146 21.3662C16.7302 20.9282 16.7743 20.3746 16.533 19.8852C16.4247 19.6645 16.0932 19.1487 15.3688 19.1158L15.2858 19.1144C14.2941 19.1144 13.4874 19.9124 13.4874 20.8932C13.4874 21.6819 12.8403 22.322 12.043 22.322C11.2456 22.322 10.5985 21.6819 10.5985 20.8932C10.5985 18.3364 12.7009 16.2568 15.2858 16.2568C15.3565 16.2568 15.4259 16.2583 15.4959 16.2611C17.0754 16.3318 18.4325 17.2184 19.1302 18.6329C19.8314 20.056 19.6935 21.7376 18.7691 23.0228L14.8423 28.4829H18.1263C18.9236 28.4829 19.5707 29.123 19.5707 29.9117C19.5707 30.7004 18.9243 31.3397 18.1263 31.3397Z" fill="#D14C3E"/>
<path d="M29.1244 31.3397C28.3271 31.3397 27.68 30.6996 27.68 29.9109V29.0672H21.9051C21.3634 29.0672 20.8672 28.7679 20.6202 28.2914C20.3732 27.8149 20.4159 27.2413 20.7315 26.8055L27.9508 16.8519C28.3155 16.3475 28.9677 16.1339 29.5664 16.3247C30.1637 16.5147 30.5689 17.0641 30.5689 17.6849V26.2097H31.4356C32.2329 26.2097 32.88 26.8498 32.88 27.6385C32.88 28.4271 32.2329 29.0672 31.4356 29.0672H30.5689V29.9109C30.5689 30.6996 29.9225 31.3397 29.1244 31.3397ZM24.7196 26.2097H27.6807V22.1277L24.7196 26.2097Z" fill="#D14C3E"/>
<path d="M42.4777 44.1315C42.2292 44.1315 41.9779 44.0679 41.7482 43.9357C41.0599 43.5357 40.8295 42.6605 41.2325 41.9804L47.2068 31.9054H42.4784C41.681 31.9054 41.0339 31.266 41.0339 30.4766C41.0339 29.6879 41.681 29.0479 42.4784 29.0479H49.7288C50.2466 29.0479 50.7247 29.3222 50.9819 29.7665C51.239 30.2109 51.2368 30.7581 50.9746 31.1996L43.7235 43.4249C43.4563 43.8786 42.9738 44.1315 42.4777 44.1315Z" fill="#D14C3E"/>
<path d="M29.1417 44.1315C28.9012 44.1315 28.6571 44.0722 28.4325 43.9465C27.7384 43.5586 27.4929 42.6863 27.8858 41.9998L42.1735 16.9819C42.5657 16.2961 43.4475 16.0525 44.1416 16.4411C44.8364 16.829 45.0812 17.7006 44.6891 18.3878L30.4006 43.405C30.1355 43.8708 29.6458 44.1315 29.1417 44.1315Z" fill="#D14C3E"/>
<path d="M30.5248 60.3873C13.6934 60.3873 0 46.8425 0 30.1937C0 13.5448 13.6934 0 30.5248 0C47.3563 0 61.0497 13.5448 61.0497 30.1937C61.0497 30.9824 60.4025 31.6224 59.6052 31.6224C58.8079 31.6224 58.1608 30.9824 58.1608 30.1937C58.1608 15.1201 45.7631 2.85756 30.5248 2.85756C15.2866 2.85756 2.8889 15.1201 2.8889 30.1937C2.8889 45.2673 15.2866 57.5298 30.5248 57.5298C40.3081 57.5298 49.4572 52.334 54.4009 43.9692C54.8039 43.2884 55.6871 43.0591 56.3769 43.457C57.0651 43.8557 57.297 44.7301 56.8947 45.4116C51.4354 54.6487 41.3315 60.3873 30.5248 60.3873Z" fill="#D14C3E"/>
<path d="M59.6048 31.6226C59.235 31.6226 58.866 31.4833 58.5836 31.204L54.633 27.2963C54.0689 26.7384 54.0689 25.8339 54.633 25.276C55.1971 24.7181 56.1114 24.7181 56.6755 25.276L59.6048 28.1728L62.5341 25.276C63.0982 24.7181 64.0125 24.7181 64.5766 25.276C65.1406 25.8339 65.1406 26.7384 64.5766 27.2963L60.626 31.204C60.3444 31.4833 59.9746 31.6226 59.6048 31.6226Z" fill="#D14C3E"/>
</svg>
