<svg width="59" height="61" viewBox="0 0 59 61" fill="none" xmlns="http://www.w3.org/2000/svg">
<path fill-rule="evenodd" clip-rule="evenodd" d="M50.0018 13.4689C52.159 13.4676 54.2448 14.2602 55.8787 15.7019C57.5126 17.1437 58.5858 19.1386 58.9025 21.3228C59.2192 23.5069 58.7584 25.7349 57.604 27.6003C56.4495 29.4656 54.6785 30.844 52.6139 31.4842V39.7976C52.6139 51.1423 43.4927 60.3873 32.3027 60.3873C21.1127 60.3873 11.9934 51.1423 11.9934 39.7976V30.038C8.62337 29.3917 5.58002 27.5599 3.38989 24.8596C1.19977 22.1593 0.000652512 18.7603 0 15.2507L0 5.84679C0.00102749 4.82292 0.398837 3.84129 1.10613 3.11731C1.81343 2.39333 2.77243 1.98614 3.77269 1.98508H6.96318V1.38914C6.96227 1.18465 7.00305 0.982214 7.08291 0.794771C7.16278 0.607328 7.27997 0.439003 7.42701 0.300557C7.56795 0.167627 7.74209 0.0772224 7.93014 0.0393564C8.11819 0.00149044 8.31281 0.0176407 8.49244 0.0860184C9.40257 0.408259 10.1917 1.01329 10.7498 1.81668C11.3078 2.62007 11.6069 3.58174 11.6053 4.5675C11.6027 5.5526 11.3031 6.51286 10.7474 7.31711C10.1916 8.12135 9.40681 8.73035 8.50021 9.0609C8.38068 9.09854 8.25653 9.11861 8.13148 9.12049C7.86512 9.1164 7.60981 9.01087 7.41536 8.82451C7.27442 8.68191 7.16256 8.51207 7.08627 8.32486C7.00998 8.13764 6.97078 7.93678 6.97095 7.73393V7.13799H5.4184V15.2507C5.4184 17.7712 6.39656 20.1884 8.13769 21.9706C9.87882 23.7528 12.2403 24.754 14.7026 24.754C17.165 24.754 19.5265 23.7528 21.2676 21.9706C23.0087 20.1884 23.9869 17.7712 23.9869 15.2507V7.13203H22.4343V7.70612C22.4355 7.91095 22.3949 8.11377 22.315 8.30157C22.2351 8.48938 22.1178 8.65802 21.9705 8.7967C21.8827 8.89664 21.7752 8.97644 21.6552 9.03087C21.5351 9.08531 21.4051 9.11314 21.2738 9.11254C21.1556 9.11229 21.0382 9.09216 20.9264 9.05295C20.0133 8.73133 19.2207 8.12643 18.659 7.32239C18.0972 6.51834 17.7942 5.5551 17.7921 4.56662C17.79 3.57814 18.0888 2.61354 18.6471 1.80696C19.2053 1.00038 19.9953 0.391908 20.907 0.0661537C21.0865 -0.00202639 21.2809 -0.017885 21.4687 0.0203432C21.6565 0.0585713 21.8302 0.149386 21.9705 0.282679C22.1175 0.421125 22.2347 0.589449 22.3146 0.776892C22.3945 0.964336 22.4352 1.16677 22.4343 1.37127V1.98508H25.6268C26.6274 1.98561 27.5869 2.39257 28.2946 3.11661C29.0023 3.84065 29.4004 4.82258 29.4014 5.84679V15.2507C29.4007 18.7603 28.2016 22.1593 26.0115 24.8596C23.8214 27.5599 20.778 29.3917 17.408 30.038V39.6009C17.408 43.6444 18.9772 47.5224 21.7705 50.3816C24.5638 53.2408 28.3524 54.8471 32.3027 54.8471C36.2531 54.8471 40.0416 53.2408 42.8349 50.3816C45.6282 47.5224 47.1975 43.6444 47.1975 39.6009V31.4246C45.1646 30.7418 43.436 29.3397 42.3221 27.47C41.2081 25.6002 40.7817 23.3853 41.1195 21.2227C41.4572 19.0602 42.537 17.0917 44.1649 15.6706C45.7928 14.2495 47.8623 13.4689 50.0018 13.4689ZM19.3428 4.5675C19.3442 5.12496 19.4883 5.67232 19.7607 6.15504C20.0331 6.63776 20.4243 7.03899 20.8954 7.31876V1.80829C20.4216 2.08688 20.0283 2.48895 19.7556 2.97361C19.4829 3.45826 19.3405 4.00821 19.3428 4.5675ZM10.0586 4.54763C10.055 3.9933 9.90978 3.44958 9.63743 2.97044C9.36509 2.49129 8.97505 2.09339 8.50603 1.81623V7.2989C8.97902 7.01937 9.37162 6.61709 9.64421 6.13265C9.91679 5.6482 10.0597 5.09874 10.0586 4.53969V4.54763ZM13.5402 34.2553H15.869V29.3845C15.8723 29.1836 15.9468 28.9907 16.0784 28.8417C16.2101 28.6926 16.3901 28.5975 16.5851 28.574C19.7154 28.1113 22.5781 26.51 24.6491 24.0633C26.7201 21.6165 27.8609 18.4881 27.8624 15.2507V5.84679C27.8578 5.24347 27.6209 4.66637 27.203 4.24087C26.7851 3.81536 26.2201 3.57581 25.6306 3.57426H22.4382V5.56073H24.767C24.9729 5.56073 25.1704 5.64445 25.316 5.79346C25.4615 5.94248 25.5433 6.14458 25.5433 6.35532V15.2507C25.5433 18.1916 24.402 21.012 22.3704 23.0915C20.3389 25.171 17.5835 26.3392 14.7104 26.3392C11.8373 26.3392 9.08194 25.171 7.05038 23.0915C5.01881 21.012 3.87749 18.1916 3.87749 15.2507V6.34142C3.87749 6.13068 3.95928 5.92857 4.10486 5.77956C4.25044 5.63054 4.44789 5.54683 4.65377 5.54683H6.98259V3.57426H3.77269C3.18529 3.57894 2.62323 3.81986 2.20786 4.24504C1.79249 4.67021 1.55712 5.24552 1.55255 5.84679V15.2507C1.55413 18.4881 2.69487 21.6165 4.76588 24.0633C6.8369 26.51 9.69962 28.1113 12.8299 28.574C13.025 28.5971 13.2053 28.6921 13.337 28.8412C13.4688 28.9904 13.5431 29.1834 13.546 29.3845L13.5402 34.2553ZM45.5343 53.236C47.2848 51.4857 48.6758 49.3948 49.6256 47.0864C50.5755 44.7779 51.0649 42.2984 51.0653 39.7936V31.8199C50.7122 31.8602 50.3571 31.88 50.0018 31.8795C49.5808 31.8767 49.1606 31.8435 48.7442 31.7802V39.6009C48.7442 44.0643 47.012 48.345 43.9286 51.5011C40.8452 54.6572 36.6633 56.4303 32.3027 56.4303C27.9422 56.4303 23.7602 54.6572 20.6768 51.5011C17.5935 48.345 15.8612 44.0643 15.8612 39.6009V35.8385H13.5324V39.7976C13.5347 42.3024 14.0259 44.7816 14.9774 47.0893C15.9289 49.3971 17.3214 51.4869 19.0731 53.236C22.5966 56.7995 27.3504 58.7979 32.3037 58.7979C37.257 58.7979 42.0108 56.7995 45.5343 53.236ZM42.5554 22.6742C42.555 24.1823 42.9916 25.6566 43.8098 26.9106C44.6281 28.1647 45.7914 29.1422 47.1525 29.7195C48.5136 30.2968 50.0113 30.448 51.4564 30.1538C52.9014 29.8597 54.2287 29.1336 55.2705 28.0672C56.3123 27.0008 57.0217 25.6422 57.3091 24.1631C57.5964 22.684 57.4487 21.1508 56.8847 19.7576C56.3208 18.3644 55.3658 17.1737 54.1406 16.3362C52.9154 15.4986 51.4751 15.0517 50.0018 15.0521C48.0281 15.0563 46.1365 15.8607 44.7409 17.2892C43.3453 18.7177 42.5595 20.654 42.5554 22.6742ZM45.9943 22.4457C45.9943 21.66 46.2219 20.8918 46.6484 20.2385C47.0749 19.5851 47.6811 19.0759 48.3903 18.7752C49.0995 18.4745 49.8799 18.3958 50.6329 18.5491C51.3858 18.7024 52.0774 19.0808 52.6202 19.6364C53.163 20.1921 53.5327 20.9 53.6824 21.6707C53.8322 22.4413 53.7553 23.2402 53.4616 23.9661C53.1678 24.6921 52.6703 25.3126 52.032 25.7491C51.3937 26.1857 50.6433 26.4187 49.8756 26.4187C48.8472 26.4155 47.8617 25.996 47.1345 25.2516C46.4073 24.5072 45.9973 23.4985 45.9943 22.4457ZM47.5468 22.4457C47.5468 22.9172 47.6834 23.3781 47.9393 23.7701C48.1952 24.1621 48.5589 24.4676 48.9844 24.6481C49.41 24.8285 49.8782 24.8757 50.33 24.7837C50.7817 24.6917 51.1967 24.4647 51.5224 24.1313C51.8481 23.7979 52.0699 23.3732 52.1597 22.9108C52.2496 22.4484 52.2035 21.9691 52.0272 21.5335C51.8509 21.0979 51.5524 20.7256 51.1695 20.4637C50.7865 20.2018 50.3362 20.062 49.8756 20.062C49.258 20.062 48.6657 20.3131 48.2289 20.7602C47.7922 21.2072 47.5468 21.8135 47.5468 22.4457Z" fill="#D14C3E"/>
</svg>
