<svg width="44" height="65" viewBox="0 0 44 65" fill="none" xmlns="http://www.w3.org/2000/svg">
<path fill-rule="evenodd" clip-rule="evenodd" d="M26.8985 19.806C26.711 19.8057 26.5277 19.8647 26.3717 19.9756C26.2157 20.0865 26.094 20.2442 26.0221 20.429C25.9502 20.6137 25.9313 20.817 25.9678 21.0132C26.0043 21.2094 26.0945 21.3896 26.2271 21.531C26.3596 21.6724 26.5285 21.7687 26.7124 21.8076C26.8963 21.8466 27.0868 21.8264 27.2599 21.7497C27.4331 21.673 27.581 21.5432 27.6849 21.3767C27.7888 21.2103 27.8441 21.0147 27.8438 20.8147C27.8438 20.5472 27.7442 20.2906 27.5669 20.1015C27.3896 19.9123 27.1492 19.806 26.8985 19.806Z" fill="#D14C3E"/>
<path fill-rule="evenodd" clip-rule="evenodd" d="M25.2656 17.4218H28.5312C28.7136 17.4218 28.8885 17.3445 29.0174 17.2069C29.1463 17.0694 29.2188 16.8828 29.2188 16.6883C29.2188 16.4938 29.1463 16.3072 29.0174 16.1697C28.8885 16.0321 28.7136 15.9548 28.5312 15.9548H25.2656C25.0833 15.9548 24.9084 16.0321 24.7795 16.1697C24.6506 16.3072 24.5781 16.4938 24.5781 16.6883C24.5781 16.8828 24.6506 17.0694 24.7795 17.2069C24.9084 17.3445 25.0833 17.4218 25.2656 17.4218Z" fill="#D14C3E"/>
<path fill-rule="evenodd" clip-rule="evenodd" d="M39.5312 53.9672H37.6406V51.95C37.6406 51.7554 37.5682 51.5688 37.4393 51.4313C37.3103 51.2937 37.1355 51.2164 36.9531 51.2164C36.7708 51.2164 36.5959 51.2937 36.467 51.4313C36.3381 51.5688 36.2656 51.7554 36.2656 51.95V53.9672H34.375C34.1927 53.9672 34.0178 54.0445 33.8889 54.1821C33.7599 54.3196 33.6875 54.5062 33.6875 54.7008C33.6875 54.8953 33.7599 55.0819 33.8889 55.2195C34.0178 55.357 34.1927 55.4343 34.375 55.4343H36.2656V57.4516C36.2656 57.6461 36.3381 57.8327 36.467 57.9703C36.5959 58.1078 36.7708 58.1851 36.9531 58.1851C37.1355 58.1851 37.3103 58.1078 37.4393 57.9703C37.5682 57.8327 37.6406 57.6461 37.6406 57.4516V55.4343H39.5312C39.7136 55.4343 39.8885 55.357 40.0174 55.2195C40.1463 55.0819 40.2188 54.8953 40.2188 54.7008C40.2188 54.5062 40.1463 54.3196 40.0174 54.1821C39.8885 54.0445 39.7136 53.9672 39.5312 53.9672Z" fill="#D14C3E"/>
<path fill-rule="evenodd" clip-rule="evenodd" d="M19.9375 16.6883C19.9375 16.4938 19.8651 16.3072 19.7361 16.1697C19.6072 16.0321 19.4323 15.9548 19.25 15.9548H15.9844C15.802 15.9548 15.6272 16.0321 15.4982 16.1697C15.3693 16.3072 15.2969 16.4938 15.2969 16.6883C15.2969 16.8828 15.3693 17.0694 15.4982 17.2069C15.6272 17.3445 15.802 17.4218 15.9844 17.4218H19.25C19.4323 17.4218 19.6072 17.3445 19.7361 17.2069C19.8651 17.0694 19.9375 16.8828 19.9375 16.6883Z" fill="#D14C3E"/>
<path fill-rule="evenodd" clip-rule="evenodd" d="M26.7059 27.3616C26.7581 27.2797 26.7941 27.1874 26.8119 27.0902C26.8297 26.9931 26.8289 26.8931 26.8095 26.7963C26.7902 26.6994 26.7526 26.6078 26.6992 26.5269C26.6457 26.446 26.5774 26.3774 26.4985 26.3254C26.4195 26.2734 26.3315 26.2389 26.2398 26.2242C26.148 26.2094 26.0544 26.2146 25.9646 26.2394C25.8748 26.2643 25.7906 26.3083 25.7172 26.3688C25.6437 26.4293 25.5825 26.505 25.5372 26.5914C25.1838 27.2067 24.6883 27.7149 24.0982 28.0675C23.5081 28.4201 22.8431 28.6052 22.1667 28.6052C21.4904 28.6052 20.8254 28.4201 20.2352 28.0675C19.6451 27.7149 19.1497 27.2067 18.7963 26.5914C18.7489 26.5094 18.6868 26.4382 18.6136 26.3818C18.5404 26.3253 18.4575 26.2849 18.3696 26.2627C18.2818 26.2404 18.1907 26.2369 18.1015 26.2522C18.0124 26.2676 17.9269 26.3015 17.8501 26.3521C17.7732 26.4027 17.7065 26.4689 17.6536 26.547C17.6007 26.6251 17.5628 26.7135 17.542 26.8073C17.5212 26.901 17.5178 26.9982 17.5322 27.0933C17.5466 27.1885 17.5784 27.2796 17.6258 27.3616C18.098 28.1957 18.764 28.8856 19.5594 29.3644C20.3548 29.8432 21.2526 30.0948 22.1659 30.0948C23.0791 30.0948 23.9769 29.8432 24.7723 29.3644C25.5677 28.8856 26.2338 28.1957 26.7059 27.3616Z" fill="#D14C3E"/>
<path fill-rule="evenodd" clip-rule="evenodd" d="M37.0631 41.5022L34.2684 40.6787C34.3267 40.3101 34.2971 39.9317 34.1825 39.5784C34.0551 39.1731 33.8186 38.8167 33.5025 38.5538C33.1865 38.291 32.8048 38.1333 32.4053 38.1003L30.8894 37.928C30.3858 37.9151 30.2448 38.0967 30.128 38.3167V33.9466C31.4533 32.8383 32.5553 31.4559 33.3677 29.8822C34.1802 28.3084 34.6865 26.5759 34.8562 24.7883H35.2533C36.1188 24.7922 36.9503 24.4294 37.5652 23.7795C38.1802 23.1296 38.5281 22.2458 38.5327 21.3223V20.9556C38.532 20.3132 38.3438 19.6871 37.9942 19.1641C37.6446 18.6412 37.1509 18.2476 36.5819 18.0379V9.27936C36.6334 5.30172 33.6823 2.05395 29.9905 1.81738C29.9733 1.80271 29.7447 1.59915 29.6278 1.50746C28.7994 0.867441 28.1617 0.685888 27.3333 0.467659C27.3333 0.467659 25.6025 0.0642092 24.5214 0.0110272C23.2031 -0.0531579 21.1406 0.18341 21.1028 0.19258C19.493 0.402364 17.9119 0.812898 16.3917 1.41577C15.8125 1.63033 15.125 1.93475 14.3962 2.26301L13.597 2.62061C12.5795 3.09375 11.5345 3.56872 10.5033 3.97033C9.67951 4.29729 8.81694 4.49976 7.94062 4.57184H7.92687C7.44906 4.62502 7.10703 4.66353 6.88531 5.02664C6.8248 5.12519 6.78554 5.23685 6.77038 5.35356C6.75522 5.47026 6.76454 5.5891 6.79766 5.7015C6.91969 6.10312 7.57453 7.12458 8.83437 8.21939C8.28524 8.8707 7.97942 9.71452 7.975 10.5906V18.0654C7.42271 18.2855 6.94665 18.6805 6.6106 19.1974C6.27454 19.7142 6.09454 20.3283 6.09469 20.9574V21.3242C6.09923 22.2473 6.44695 23.1308 7.06148 23.7807C7.67602 24.4305 8.50713 24.7936 9.37234 24.7902H9.76937C9.93158 26.5798 10.4346 28.3152 11.2477 29.89C12.0607 31.4648 13.1667 32.8458 14.4977 33.9485V38.3094C14.343 38.0178 14.0852 37.9114 13.7208 37.9628L12.1172 38.1645C11.5803 38.2271 11.0878 38.5118 10.7455 38.9576C10.4033 39.4033 10.2385 39.9746 10.2867 40.5485L6.9575 41.5168C4.96517 42.0936 3.2054 43.3522 1.94848 45.0995C0.691568 46.8468 0.00702426 48.986 0 51.1886L0 62.3513C-2.35736e-06 62.6411 0.0536292 62.928 0.157816 63.1956C0.262004 63.4632 0.414695 63.7062 0.607127 63.9107C0.799559 64.1151 1.02794 64.277 1.27917 64.3871C1.5304 64.4971 1.79952 64.5532 2.07109 64.552H41.9375C42.4845 64.552 43.0091 64.3201 43.3959 63.9074C43.7827 63.4947 44 62.935 44 62.3513V51.1648C43.9901 48.9672 43.3068 46.8335 42.0543 45.0889C40.8019 43.3443 39.049 42.0847 37.0631 41.5022ZM8.57656 5.95824C9.38901 5.84569 10.1873 5.63781 10.957 5.3384C11.9711 4.93311 14.2433 3.89331 14.3086 3.87131C15.2367 3.44768 16.1133 3.0479 16.8231 2.79116C18.3253 2.241 19.4631 1.87423 21.2575 1.64133C22.483 1.47812 23.1911 1.38642 24.3994 1.45794C25.9136 1.52946 26.8434 1.667 28.7633 2.69763C29.2961 3.10659 30.0747 4.24908 30.0747 4.24908C30.3962 4.76309 30.6572 5.31742 30.8516 5.89956C30.8809 5.9914 30.927 6.07611 30.9873 6.1488C31.0476 6.22148 31.1207 6.28069 31.2026 6.32299C31.2844 6.36529 31.3733 6.38984 31.4641 6.39522C31.5549 6.40061 31.6458 6.38672 31.7316 6.35435C31.8171 6.32354 31.8961 6.27504 31.9641 6.21163C32.0321 6.14822 32.0877 6.07115 32.1278 5.98481C32.1678 5.89847 32.1915 5.80456 32.1976 5.70844C32.2036 5.61231 32.1919 5.51586 32.163 5.42459C31.9359 4.77488 31.648 4.15127 31.3036 3.56322C32.4341 3.95413 33.4205 4.71489 34.123 5.73762C34.8255 6.76034 35.2083 7.9931 35.2172 9.26103V16.5965L33.9402 16.5836C33.4572 16.5836 33.1117 16.072 33.0945 15.5805C33.0829 14.6747 32.9193 13.7785 32.6116 12.9343C32.1246 11.7341 31.4543 10.6286 30.6281 9.66264C30.317 9.24269 30.1434 9.13266 29.7997 9.24269C29.7653 9.26103 26.6062 10.2275 24.4148 10.6841C22.4486 11.1041 21.12 11.2691 18.8942 11.1224C16.8747 10.994 15.6853 10.7758 13.8909 9.82769C13.4939 9.60763 12.5262 9.13266 11.6291 8.53115L9.96875 7.34464C9.46234 6.93342 8.99594 6.46895 8.57656 5.95824ZM11.6119 10.2275V15.8666C11.6119 16.0611 11.5394 16.2477 11.4105 16.3853C11.2816 16.5229 11.1067 16.6001 10.9244 16.6001H9.3775V10.6107C9.37749 10.3324 9.42947 10.0569 9.5304 9.80031C9.63132 9.54369 9.77917 9.31111 9.96531 9.11615C9.99969 9.14182 11.5156 10.1633 11.6119 10.2275ZM11.0962 23.512V22.4116C11.0962 22.2171 11.0238 22.0305 10.8949 21.893C10.766 21.7554 10.5911 21.6781 10.4087 21.6781C10.2264 21.6781 10.0515 21.7554 9.92261 21.893C9.79368 22.0305 9.72125 22.2171 9.72125 22.4116V23.3286H9.3775C8.87786 23.3286 8.39852 23.1176 8.04426 22.7416C7.68999 22.3657 7.4896 21.8554 7.48687 21.3223V20.9556C7.48687 20.5178 7.64985 20.098 7.93994 19.7885C8.23004 19.479 8.62349 19.3051 9.03375 19.3051C9.21609 19.3051 9.39095 19.2278 9.51989 19.0902C9.64882 18.9527 9.72125 18.7661 9.72125 18.5715C9.72387 18.466 9.70332 18.3613 9.66124 18.2658C9.61916 18.1703 9.55672 18.0866 9.47891 18.0214H10.9123C11.4576 18.0214 11.9806 17.791 12.3671 17.3807C12.7536 16.9704 12.9721 16.4135 12.9748 15.8318V10.9757C13.0127 10.9995 13.2086 11.0986 13.2687 11.1407C15.2539 12.1805 16.6856 12.4538 18.7911 12.5821C19.3428 12.6188 19.8602 12.6372 20.3259 12.6372C21.7836 12.6278 23.2359 12.4489 24.6572 12.1035C26.4172 11.7367 28.7117 11.0637 29.6777 10.7721C30.0919 11.2819 30.8516 12.2869 31.283 13.4532C31.5231 14.1433 31.6515 14.872 31.6628 15.608C31.6972 16.9394 32.6941 18.0159 33.8886 18.0159H35.1656C35.0845 18.0823 35.0188 18.1679 34.9738 18.2658C34.9288 18.3638 34.9056 18.4716 34.9061 18.5807C34.9061 18.7753 34.9785 18.9618 35.1075 19.0994C35.2364 19.237 35.4113 19.3143 35.5936 19.3143C36.0038 19.3143 36.3973 19.4881 36.6874 19.7977C36.9775 20.1072 37.1405 20.527 37.1405 20.9647V21.3315C37.1377 21.8646 36.9373 22.3749 36.5831 22.7508C36.2288 23.1267 35.7495 23.3378 35.2498 23.3377H34.9061V22.4208C34.9061 22.2263 34.8337 22.0397 34.7047 21.9021C34.5758 21.7646 34.4009 21.6873 34.2186 21.6873C34.0363 21.6873 33.8614 21.7646 33.7325 21.9021C33.6035 22.0397 33.5311 22.2263 33.5311 22.4208V23.5211C33.5311 30.0515 28.4934 35.3789 22.3162 35.3789C16.1391 35.3789 11.0945 30.0424 11.0945 23.512H11.0962ZM22.1564 44.418C20.9602 44.4159 19.7788 44.1359 18.6943 43.5975C17.6098 43.0592 16.6481 42.2753 15.8761 41.3004V34.9516C17.8251 36.181 20.0478 36.8296 22.312 36.8296C24.5761 36.8296 26.7988 36.181 28.7478 34.9516V40.8805C27.9818 41.9761 26.9873 42.8663 25.8429 43.4807C24.6985 44.095 23.4357 44.4166 22.1547 44.4198L22.1564 44.418ZM28.0758 43.5231L22.9195 60.3102C22.8751 60.4583 22.7877 60.5874 22.67 60.6791C22.5523 60.7707 22.4104 60.8201 22.2647 60.82C22.1199 60.8261 21.9773 60.7813 21.8587 60.6925C21.7401 60.6038 21.652 60.4759 21.6081 60.3286L16.2027 43.5799C17.866 45.0745 19.9732 45.8895 22.1478 45.8795C24.3224 45.8694 26.4229 45.0348 28.0741 43.5249L28.0758 43.5231ZM2.07109 63.0849C1.88876 63.0849 1.71389 63.0076 1.58496 62.87C1.45603 62.7325 1.38359 62.5459 1.38359 62.3513V51.1886C1.39233 49.306 1.97936 47.4784 3.05473 45.9859C4.1301 44.4934 5.63449 43.4182 7.33734 42.9252L10.8917 41.8836L12.0467 43.2168C12.169 43.3523 12.236 43.5341 12.2327 43.7222C12.2295 43.9103 12.1564 44.0893 12.0295 44.2199L11.098 45.2066C10.7868 45.5322 10.5819 45.9558 10.5135 46.4151C10.4451 46.8744 10.5168 47.345 10.7181 47.7575L13.3891 53.2334H9.96875V52.1569C9.96875 51.9623 9.89632 51.7758 9.76738 51.6382C9.63845 51.5006 9.46359 51.4233 9.28125 51.4233C9.09891 51.4233 8.92404 51.5006 8.79511 51.6382C8.66618 51.7758 8.59375 51.9623 8.59375 52.1569V53.2334H5.19406C4.82939 53.2334 4.47965 53.3879 4.22179 53.6631C3.96393 53.9382 3.81906 54.3114 3.81906 54.7005V59.6189C3.82133 60.0064 3.9672 60.3772 4.22482 60.6503C4.48243 60.9235 4.83087 61.0768 5.19406 61.0768H13.3031C13.6663 61.0768 14.0148 60.9235 14.2724 60.6503C14.53 60.3772 14.6759 60.0064 14.6781 59.6189V55.8796L18.2033 63.0849H2.07109ZM13.3031 54.6931V59.6189H5.19406V54.6931H13.3031ZM19.7398 63.0317L11.923 47.0477C11.8567 46.9092 11.8326 46.7519 11.8542 46.598C11.8758 46.4442 11.9419 46.3013 12.0433 46.1895L12.9748 45.2066C13.3539 44.8101 13.572 44.2706 13.5819 43.7043C13.5919 43.138 13.393 42.5902 13.0281 42.1788L11.825 40.7924C11.7452 40.6977 11.6916 40.5812 11.6704 40.4558C11.6491 40.3305 11.661 40.2013 11.7047 40.0827C11.749 39.9565 11.825 39.8457 11.9245 39.7626C12.024 39.6794 12.143 39.6271 12.2684 39.6114L13.4062 39.4647L13.6142 40.1047L20.2812 60.787C20.4194 61.2234 20.6847 61.6012 21.0385 61.8652C21.3923 62.1291 21.8159 62.2654 22.2475 62.2541H22.2664C22.7007 62.2596 23.125 62.1153 23.4762 61.8426C23.8274 61.57 24.0867 61.1837 24.2155 60.7412L30.7656 39.4024L32.2661 39.5308C32.3992 39.5404 32.5265 39.5926 32.6314 39.6806C32.7362 39.7686 32.8138 39.8883 32.8539 40.0241C32.8985 40.1571 32.9042 40.3015 32.8701 40.4381C32.836 40.5747 32.7639 40.697 32.6631 40.7888L31.3689 42.0486C31.1637 42.2483 30.9985 42.49 30.883 42.7595C30.7675 43.0289 30.7042 43.3204 30.6969 43.6166C30.6893 43.9117 30.739 44.2052 30.8428 44.4788C30.9466 44.7524 31.1023 45.0002 31.3002 45.2066L32.1595 46.1235C32.2599 46.2319 32.3268 46.3704 32.3514 46.5205C32.3759 46.6706 32.357 46.8251 32.297 46.9634L24.7912 63.039L19.7398 63.0317ZM42.637 62.3513H42.625C42.625 62.5459 42.5526 62.7325 42.4236 62.87C42.2947 63.0076 42.1198 63.0849 41.9375 63.0849H26.3656L33.5844 47.6493C33.7793 47.2398 33.8459 46.7743 33.7745 46.3214C33.703 45.8685 33.4972 45.452 33.1873 45.1332L32.328 44.2163C32.262 44.1473 32.2097 44.0647 32.1743 43.9737C32.1388 43.8826 32.1209 43.7849 32.1217 43.6863C32.124 43.5868 32.1449 43.4888 32.1833 43.3981C32.2217 43.3073 32.2767 43.2258 32.3452 43.1581L33.5483 41.99L36.7056 42.9216C38.4043 43.4198 39.9037 44.4969 40.9754 45.9888C42.0472 47.4806 42.6325 49.3053 42.6422 51.1849L42.637 62.3513Z" fill="#D14C3E"/>
<path fill-rule="evenodd" clip-rule="evenodd" d="M18.5625 20.8201C18.5622 20.6207 18.5064 20.4259 18.4023 20.2603C18.2983 20.0947 18.1505 19.9657 17.9778 19.8896C17.805 19.8135 17.615 19.7938 17.4317 19.833C17.2485 19.8721 17.0802 19.9683 16.9481 20.1094C16.8161 20.2506 16.7262 20.4303 16.6899 20.6259C16.6536 20.8215 16.6724 21.0242 16.744 21.2084C16.8156 21.3926 16.9368 21.55 17.0922 21.6607C17.2476 21.7715 17.4303 21.8306 17.6172 21.8306C17.8675 21.8282 18.1069 21.7209 18.2837 21.5319C18.4606 21.3429 18.5607 21.0872 18.5625 20.8201Z" fill="#D14C3E"/>
</svg>
