<svg width="72" height="59" viewBox="0 0 72 59" fill="none" xmlns="http://www.w3.org/2000/svg">
<path d="M8.77759 49.8571C8.77759 52.0167 9.59703 54.0879 11.0556 55.615C12.5143 57.1421 14.4926 58 16.5554 58C18.6182 58 20.5965 57.1421 22.0551 55.615C23.5137 54.0879 24.3331 52.0167 24.3331 49.8571C24.3331 47.6975 23.5137 45.6263 22.0551 44.0992C20.5965 42.5721 18.6182 41.7142 16.5554 41.7142C14.4926 41.7142 12.5143 42.5721 11.0556 44.0992C9.59703 45.6263 8.77759 47.6975 8.77759 49.8571Z" stroke="#D14C3E" stroke-width="2" stroke-linecap="round" stroke-linejoin="round"/>
<path d="M47.6665 49.8571C47.6665 52.0167 48.4859 54.0879 49.9446 55.615C51.4032 57.1421 53.3815 58 55.4443 58C57.5071 58 59.4854 57.1421 60.944 55.615C62.4026 54.0879 63.2221 52.0167 63.2221 49.8571C63.2221 47.6975 62.4026 45.6263 60.944 44.0992C59.4854 42.5721 57.5071 41.7142 55.4443 41.7142C53.3815 41.7142 51.4032 42.5721 49.9446 44.0992C48.4859 45.6263 47.6665 47.6975 47.6665 49.8571Z" stroke="#D14C3E" stroke-width="2" stroke-linecap="round" stroke-linejoin="round"/>
<path d="M8.77778 49.8572H1V5.07143C1 3.99162 1.40972 2.95604 2.13903 2.1925C2.86834 1.42895 3.85749 1 4.88889 1H39.8889V49.8572M24.3333 49.8572H47.6667M63.2222 49.8572H71V25.4286M71 25.4286H39.8889M71 25.4286L59.3333 5.07143H39.8889" stroke="#D14C3E" stroke-width="2" stroke-linecap="round" stroke-linejoin="round"/>
<path d="M12.6667 21.3572H28.2223M20.4445 13.2144V29.5001" stroke="#D14C3E" stroke-width="2" stroke-linecap="round" stroke-linejoin="round"/>
</svg>
